<svg width="168" height="30" viewBox="0 0 168 30" fill="none" xmlns="http://www.w3.org/2000/svg">
<path d="M11.16 0.119988C16.3333 0.0399895 19.8933 1.57332 21.84 4.71999C22.1067 5.14666 22.3067 5.58666 22.44 6.03999C22.6 6.49332 22.7467 6.98666 22.88 7.51999C22.9333 7.73332 22.9467 7.98666 22.92 8.27999C22.92 8.54666 22.8667 8.74666 22.76 8.87999C22.6267 9.03999 22.44 9.14666 22.2 9.19999C21.96 9.22666 21.6933 9.23999 21.4 9.23999H18.88C18.64 9.23999 18.4 9.23999 18.16 9.23999C17.92 9.23999 17.72 9.21332 17.56 9.15999C17.24 9.02666 17.04 8.81332 16.96 8.51999C16.88 8.22666 16.7733 7.93332 16.64 7.63999C16.5333 7.37332 16.3867 7.09332 16.2 6.79999C16.0133 6.50666 15.8133 6.27999 15.6 6.11999C15.2267 5.85332 14.8667 5.62666 14.52 5.43999C14.2 5.30666 13.8 5.19999 13.32 5.11999C12.8667 5.01332 12.3867 4.94665 11.88 4.91999C11.4 4.89332 10.92 4.90666 10.44 4.95999C9.96 5.01332 9.53333 5.11999 9.16 5.27999C8.54667 5.54666 8.06667 5.86666 7.72 6.23999C7.4 6.58666 7.17333 7.11999 7.04 7.83999C6.98667 8.02666 6.97333 8.23999 7 8.47999C7.02667 8.69332 7.06667 8.86666 7.12 8.99999C7.33333 9.55999 7.62667 9.95999 8 10.2C8.4 10.4133 8.86667 10.6267 9.4 10.84C9.69333 10.9733 9.98667 11.08 10.28 11.16C10.6 11.2133 10.92 11.2933 11.24 11.4C11.96 11.64 12.6933 11.8533 13.44 12.04C14.2133 12.2 14.9733 12.3867 15.72 12.6C15.8533 12.6533 15.9867 12.68 16.12 12.68C16.2533 12.68 16.3867 12.7067 16.52 12.76C17.0533 12.9467 17.6 13.12 18.16 13.28C18.7467 13.44 19.2667 13.6667 19.72 13.96C20.44 14.4133 21.0533 14.8667 21.56 15.32C22.0933 15.7733 22.5867 16.36 23.04 17.08C23.1733 17.2933 23.28 17.5333 23.36 17.8C23.4667 18.0667 23.5733 18.3333 23.68 18.6C23.7067 18.68 23.72 18.76 23.72 18.84C23.72 18.8933 23.7333 18.9467 23.76 19C23.8667 19.4267 23.92 19.96 23.92 20.6C23.9733 20.7333 23.9733 20.8667 23.92 21V21.72C23.8667 22.0133 23.8133 22.2933 23.76 22.56C23.7333 22.8267 23.68 23.0933 23.6 23.36C23.44 23.84 23.2667 24.28 23.08 24.68C22.8933 25.08 22.6667 25.4667 22.4 25.84C22.2933 25.9733 22.1867 26.0933 22.08 26.2C21.9733 26.28 21.88 26.3867 21.8 26.52C21.6667 26.68 21.52 26.84 21.36 27C21.2 27.1333 21.0267 27.2667 20.84 27.4C20.7067 27.5067 20.56 27.6133 20.4 27.72C20.2667 27.8267 20.12 27.9333 19.96 28.04C19.5067 28.3333 19.0267 28.5733 18.52 28.76C18.04 28.9467 17.5333 29.1333 17 29.32C16.6267 29.4533 16.24 29.5333 15.84 29.56C15.44 29.6133 15.04 29.68 14.64 29.76C14.4533 29.8133 14.2667 29.8267 14.08 29.8C13.92 29.8 13.76 29.8267 13.6 29.88H13.28C13.2267 29.88 13.1467 29.8667 13.04 29.84C12.96 29.84 12.8933 29.8533 12.84 29.88C12.7067 29.9067 12.48 29.92 12.16 29.92C11.84 29.92 11.6133 29.9067 11.48 29.88H11.08C10.8933 29.8267 10.6933 29.8 10.48 29.8C10.2933 29.8267 10.12 29.8133 9.96 29.76C9.82667 29.76 9.70667 29.7467 9.6 29.72C9.49333 29.72 9.37333 29.7067 9.24 29.68C8.92 29.6 8.58667 29.5333 8.24 29.48C7.89333 29.4267 7.57333 29.3467 7.28 29.24C5.97333 28.8133 4.82667 28.28 3.84 27.64C2.85333 26.9733 2.02667 26.1067 1.36 25.04C0.933333 24.4 0.6 23.64 0.36 22.76C0.306667 22.6 0.266667 22.44 0.24 22.28C0.24 22.12 0.213333 21.9467 0.16 21.76C0.106667 21.5467 0.0666667 21.2933 0.04 21C0.0133334 20.68 0.0666667 20.44 0.2 20.28C0.333333 20.0667 0.52 19.9467 0.76 19.92C1.02667 19.8667 1.32 19.84 1.64 19.84H4.16C4.37333 19.84 4.6 19.84 4.84 19.84C5.08 19.84 5.29333 19.88 5.48 19.96C5.77333 20.0933 5.94667 20.32 6 20.64C6.05333 20.9333 6.14667 21.24 6.28 21.56C6.38667 21.88 6.52 22.1733 6.68 22.44C6.84 22.7067 7.01333 22.96 7.2 23.2C7.33333 23.36 7.48 23.5067 7.64 23.64C7.8 23.7733 7.96 23.8933 8.12 24C8.70667 24.3733 9.42667 24.68 10.28 24.92C10.4667 24.9733 10.64 25 10.8 25C10.9867 25 11.1867 25.0267 11.4 25.08H11.6C11.8133 25.1333 12.1067 25.16 12.48 25.16C12.8533 25.16 13.1467 25.1333 13.36 25.08C13.44 25.0533 13.5733 25.04 13.76 25.04C13.8933 25.0133 14.0267 25 14.16 25C14.32 24.9733 14.4667 24.9333 14.6 24.88C15.5067 24.64 16.2267 24.32 16.76 23.92C17.2933 23.52 17.6667 22.8533 17.88 21.92C17.9333 21.7333 17.9333 21.52 17.88 21.28C17.8533 21.04 17.8133 20.8533 17.76 20.72C17.4933 20 17.04 19.44 16.4 19.04C16.32 18.9867 16.1733 18.9067 15.96 18.8C15.56 18.56 15.1067 18.3733 14.6 18.24C14.12 18.08 13.64 17.92 13.16 17.76C12.9733 17.7067 12.7867 17.6667 12.6 17.64C12.44 17.5867 12.2533 17.5333 12.04 17.48C11.6133 17.3467 11.1733 17.24 10.72 17.16C10.2933 17.0533 9.88 16.9333 9.48 16.8C9.34667 16.7467 9.24 16.72 9.16 16.72C9.08 16.72 8.98667 16.6933 8.88 16.64C8.66667 16.5867 8.46667 16.5333 8.28 16.48C8.12 16.4267 7.93333 16.3733 7.72 16.32C7.10667 16.1067 6.52 15.8933 5.96 15.68C5.4 15.44 4.88 15.1733 4.4 14.88C3.78667 14.48 3.22667 14.0133 2.72 13.48C2.21333 12.9467 1.81333 12.3333 1.52 11.64C1.41333 11.4 1.33333 11.16 1.28 10.92C1.22667 10.6533 1.16 10.3733 1.08 10.08C1.02667 9.83999 0.986667 9.49332 0.96 9.03999C0.933333 8.58666 0.946667 8.21332 1 7.91999C1.02667 7.81332 1.04 7.65332 1.04 7.43999C1.12 7.14666 1.18667 6.86665 1.24 6.59999C1.29333 6.33332 1.37333 6.06666 1.48 5.79999C1.88 4.86666 2.38667 4.07999 3 3.43999C3.64 2.77332 4.37333 2.17332 5.2 1.63999C5.73333 1.31999 6.30667 1.06666 6.92 0.879988C7.53333 0.693322 8.18667 0.519989 8.88 0.359988C9.14667 0.306655 9.4 0.279989 9.64 0.279989C9.90667 0.253322 10.1733 0.213322 10.44 0.159988C10.52 0.133322 10.64 0.133322 10.8 0.159988C10.9867 0.186656 11.1067 0.173323 11.16 0.119988ZM27.0966 0.679988H30.4966C30.7899 0.679988 31.0699 0.693322 31.3366 0.719988C31.6299 0.746656 31.8432 0.83999 31.9766 0.999989C32.1099 1.21332 32.1766 1.49332 32.1766 1.83999C32.2032 2.15999 32.2166 2.49332 32.2166 2.83999V6.87999V15.12V16.52C32.2166 16.6267 32.2032 16.7467 32.1766 16.88C32.1766 16.9867 32.1899 17.0933 32.2166 17.2V17.84C32.2166 18.08 32.2032 18.3333 32.1766 18.6C32.1766 18.8667 32.2032 19.1067 32.2566 19.32C32.2566 19.5067 32.2699 19.6533 32.2966 19.76C32.3499 20.0533 32.3899 20.3467 32.4166 20.64C32.4699 20.9333 32.5499 21.2267 32.6566 21.52C32.9499 22.2133 33.3232 22.7867 33.7766 23.24C34.2566 23.6933 34.8832 24.0533 35.6566 24.32C35.8699 24.3733 36.0832 24.4133 36.2966 24.44C36.5099 24.4667 36.7232 24.5067 36.9366 24.56C37.0699 24.6133 37.1899 24.64 37.2966 24.64C37.4032 24.6133 37.5232 24.6133 37.6566 24.64C37.7632 24.6667 37.9366 24.68 38.1766 24.68C38.4166 24.6533 38.5766 24.6267 38.6566 24.6H39.2566C39.4699 24.5467 39.6832 24.5067 39.8966 24.48C40.1099 24.4533 40.3099 24.4133 40.4966 24.36C40.8699 24.28 41.1632 24.1867 41.3766 24.08C41.8566 23.8667 42.2699 23.5867 42.6166 23.24C42.9899 22.8667 43.2832 22.4533 43.4966 22C43.7899 21.3067 43.9632 20.4933 44.0166 19.56C44.0699 18.6 44.0966 17.6133 44.0966 16.6V8.63999V3.27999C44.0966 2.90665 44.0832 2.49332 44.0566 2.03999C44.0566 1.58666 44.1366 1.25332 44.2966 1.03999C44.4299 0.879989 44.6166 0.786656 44.8566 0.75999C45.0966 0.706656 45.3632 0.679988 45.6566 0.679988H48.2166C48.4299 0.679988 48.6299 0.679988 48.8166 0.679988C49.0299 0.653322 49.2299 0.666655 49.4166 0.719988C49.7899 0.799988 50.0299 0.933322 50.1366 1.11999C50.2699 1.33332 50.3232 1.63999 50.2966 2.03999C50.2966 2.41332 50.2966 2.75999 50.2966 3.07999V8.43999V16.52C50.2966 17.5333 50.2832 18.52 50.2566 19.48C50.2299 20.44 50.1099 21.3067 49.8966 22.08C49.5232 23.3333 49.0432 24.4267 48.4566 25.36C47.8966 26.2667 47.1499 27.04 46.2166 27.68C45.3899 28.2667 44.4166 28.7467 43.2966 29.12C43.0566 29.2 42.8032 29.2667 42.5366 29.32C42.2966 29.3733 42.0566 29.4267 41.8166 29.48C41.6566 29.5333 41.4966 29.56 41.3366 29.56C41.2032 29.56 41.0566 29.5867 40.8966 29.64C40.5766 29.6933 40.2166 29.7333 39.8166 29.76C39.4166 29.7867 39.0299 29.8 38.6566 29.8C36.1232 29.8267 33.9632 29.52 32.1766 28.88C30.3899 28.2133 28.9899 27.1467 27.9766 25.68C27.6299 25.2 27.3366 24.7067 27.0966 24.2C26.8832 23.6667 26.6832 23.0933 26.4966 22.48C26.4432 22.3467 26.4166 22.24 26.4166 22.16C26.4166 22.0533 26.3899 21.9333 26.3366 21.8C26.1232 21.0533 26.0166 20.2133 26.0166 19.28C26.0166 18.3467 26.0166 17.4133 26.0166 16.48V5.31999V2.51999C26.0166 2.25332 26.0166 1.99999 26.0166 1.75999C26.0166 1.49332 26.0566 1.27999 26.1366 1.11999C26.2966 0.933322 26.5099 0.799988 26.7766 0.719988C26.8299 0.719988 26.8832 0.719988 26.9366 0.719988C26.9899 0.719988 27.0432 0.706655 27.0966 0.679988ZM63.585 0.119988C68.7583 0.0399895 72.3183 1.57332 74.265 4.71999C74.5317 5.14666 74.7317 5.58666 74.865 6.03999C75.025 6.49332 75.1717 6.98666 75.305 7.51999C75.3583 7.73332 75.3717 7.98666 75.345 8.27999C75.345 8.54666 75.2917 8.74666 75.185 8.87999C75.0517 9.03999 74.865 9.14666 74.625 9.19999C74.385 9.22666 74.1183 9.23999 73.825 9.23999H71.305C71.065 9.23999 70.825 9.23999 70.585 9.23999C70.345 9.23999 70.145 9.21332 69.985 9.15999C69.665 9.02666 69.465 8.81332 69.385 8.51999C69.305 8.22666 69.1983 7.93332 69.065 7.63999C68.9583 7.37332 68.8117 7.09332 68.625 6.79999C68.4383 6.50666 68.2383 6.27999 68.025 6.11999C67.6517 5.85332 67.2917 5.62666 66.945 5.43999C66.625 5.30666 66.225 5.19999 65.745 5.11999C65.2917 5.01332 64.8117 4.94665 64.305 4.91999C63.825 4.89332 63.345 4.90666 62.865 4.95999C62.385 5.01332 61.9583 5.11999 61.585 5.27999C60.9717 5.54666 60.4917 5.86666 60.145 6.23999C59.825 6.58666 59.5983 7.11999 59.465 7.83999C59.4117 8.02666 59.3983 8.23999 59.425 8.47999C59.4517 8.69332 59.4917 8.86666 59.545 8.99999C59.7583 9.55999 60.0517 9.95999 60.425 10.2C60.825 10.4133 61.2917 10.6267 61.825 10.84C62.1183 10.9733 62.4117 11.08 62.705 11.16C63.025 11.2133 63.345 11.2933 63.665 11.4C64.385 11.64 65.1183 11.8533 65.865 12.04C66.6383 12.2 67.3983 12.3867 68.145 12.6C68.2783 12.6533 68.4117 12.68 68.545 12.68C68.6783 12.68 68.8117 12.7067 68.945 12.76C69.4783 12.9467 70.025 13.12 70.585 13.28C71.1717 13.44 71.6917 13.6667 72.145 13.96C72.865 14.4133 73.4783 14.8667 73.985 15.32C74.5183 15.7733 75.0117 16.36 75.465 17.08C75.5983 17.2933 75.705 17.5333 75.785 17.8C75.8917 18.0667 75.9983 18.3333 76.105 18.6C76.1317 18.68 76.145 18.76 76.145 18.84C76.145 18.8933 76.1583 18.9467 76.185 19C76.2917 19.4267 76.345 19.96 76.345 20.6C76.3983 20.7333 76.3983 20.8667 76.345 21V21.72C76.2917 22.0133 76.2383 22.2933 76.185 22.56C76.1583 22.8267 76.105 23.0933 76.025 23.36C75.865 23.84 75.6917 24.28 75.505 24.68C75.3183 25.08 75.0917 25.4667 74.825 25.84C74.7183 25.9733 74.6117 26.0933 74.505 26.2C74.3983 26.28 74.305 26.3867 74.225 26.52C74.0917 26.68 73.945 26.84 73.785 27C73.625 27.1333 73.4517 27.2667 73.265 27.4C73.1317 27.5067 72.985 27.6133 72.825 27.72C72.6917 27.8267 72.545 27.9333 72.385 28.04C71.9317 28.3333 71.4517 28.5733 70.945 28.76C70.465 28.9467 69.9583 29.1333 69.425 29.32C69.0517 29.4533 68.665 29.5333 68.265 29.56C67.865 29.6133 67.465 29.68 67.065 29.76C66.8783 29.8133 66.6917 29.8267 66.505 29.8C66.345 29.8 66.185 29.8267 66.025 29.88H65.705C65.6517 29.88 65.5717 29.8667 65.465 29.84C65.385 29.84 65.3183 29.8533 65.265 29.88C65.1317 29.9067 64.905 29.92 64.585 29.92C64.265 29.92 64.0383 29.9067 63.905 29.88H63.505C63.3183 29.8267 63.1183 29.8 62.905 29.8C62.7183 29.8267 62.545 29.8133 62.385 29.76C62.2517 29.76 62.1317 29.7467 62.025 29.72C61.9183 29.72 61.7983 29.7067 61.665 29.68C61.345 29.6 61.0117 29.5333 60.665 29.48C60.3183 29.4267 59.9983 29.3467 59.705 29.24C58.3983 28.8133 57.2517 28.28 56.265 27.64C55.2783 26.9733 54.4517 26.1067 53.785 25.04C53.3583 24.4 53.025 23.64 52.785 22.76C52.7317 22.6 52.6917 22.44 52.665 22.28C52.665 22.12 52.6383 21.9467 52.585 21.76C52.5317 21.5467 52.4917 21.2933 52.465 21C52.4383 20.68 52.4917 20.44 52.625 20.28C52.7583 20.0667 52.945 19.9467 53.185 19.92C53.4517 19.8667 53.745 19.84 54.065 19.84H56.585C56.7983 19.84 57.025 19.84 57.265 19.84C57.505 19.84 57.7183 19.88 57.905 19.96C58.1983 20.0933 58.3717 20.32 58.425 20.64C58.4783 20.9333 58.5717 21.24 58.705 21.56C58.8117 21.88 58.945 22.1733 59.105 22.44C59.265 22.7067 59.4383 22.96 59.625 23.2C59.7583 23.36 59.905 23.5067 60.065 23.64C60.225 23.7733 60.385 23.8933 60.545 24C61.1317 24.3733 61.8517 24.68 62.705 24.92C62.8917 24.9733 63.065 25 63.225 25C63.4117 25 63.6117 25.0267 63.825 25.08H64.025C64.2383 25.1333 64.5317 25.16 64.905 25.16C65.2783 25.16 65.5717 25.1333 65.785 25.08C65.865 25.0533 65.9983 25.04 66.185 25.04C66.3183 25.0133 66.4517 25 66.585 25C66.745 24.9733 66.8917 24.9333 67.025 24.88C67.9317 24.64 68.6517 24.32 69.185 23.92C69.7183 23.52 70.0917 22.8533 70.305 21.92C70.3583 21.7333 70.3583 21.52 70.305 21.28C70.2783 21.04 70.2383 20.8533 70.185 20.72C69.9183 20 69.465 19.44 68.825 19.04C68.745 18.9867 68.5983 18.9067 68.385 18.8C67.985 18.56 67.5317 18.3733 67.025 18.24C66.545 18.08 66.065 17.92 65.585 17.76C65.3983 17.7067 65.2117 17.6667 65.025 17.64C64.865 17.5867 64.6783 17.5333 64.465 17.48C64.0383 17.3467 63.5983 17.24 63.145 17.16C62.7183 17.0533 62.305 16.9333 61.905 16.8C61.7717 16.7467 61.665 16.72 61.585 16.72C61.505 16.72 61.4117 16.6933 61.305 16.64C61.0917 16.5867 60.8917 16.5333 60.705 16.48C60.545 16.4267 60.3583 16.3733 60.145 16.32C59.5317 16.1067 58.945 15.8933 58.385 15.68C57.825 15.44 57.305 15.1733 56.825 14.88C56.2117 14.48 55.6517 14.0133 55.145 13.48C54.6383 12.9467 54.2383 12.3333 53.945 11.64C53.8383 11.4 53.7583 11.16 53.705 10.92C53.6517 10.6533 53.585 10.3733 53.505 10.08C53.4517 9.83999 53.4117 9.49332 53.385 9.03999C53.3583 8.58666 53.3717 8.21332 53.425 7.91999C53.4517 7.81332 53.465 7.65332 53.465 7.43999C53.545 7.14666 53.6117 6.86665 53.665 6.59999C53.7183 6.33332 53.7983 6.06666 53.905 5.79999C54.305 4.86666 54.8117 4.07999 55.425 3.43999C56.065 2.77332 56.7983 2.17332 57.625 1.63999C58.1583 1.31999 58.7317 1.06666 59.345 0.879988C59.9583 0.693322 60.6117 0.519989 61.305 0.359988C61.5717 0.306655 61.825 0.279989 62.065 0.279989C62.3317 0.253322 62.5983 0.213322 62.865 0.159988C62.945 0.133322 63.065 0.133322 63.225 0.159988C63.4117 0.186656 63.5317 0.173323 63.585 0.119988ZM79.6016 0.75999H83.0416C83.3349 0.75999 83.6149 0.773323 83.8816 0.799989C84.1482 0.799989 84.3482 0.893322 84.4816 1.07999C84.6149 1.26666 84.6816 1.50666 84.6816 1.79999C84.7082 2.09332 84.7216 2.41332 84.7216 2.75999V6.23999V20.12V26.68C84.7216 27.0267 84.7216 27.4133 84.7216 27.84C84.7482 28.2667 84.6949 28.5867 84.5616 28.8C84.4549 28.9867 84.2149 29.1333 83.8416 29.24C83.6549 29.2933 83.4549 29.3067 83.2416 29.28C83.0282 29.2533 82.8149 29.24 82.6016 29.24H80.2416C79.9482 29.24 79.6682 29.2267 79.4016 29.2C79.1616 29.1733 78.9616 29.0933 78.8016 28.96C78.6682 28.8267 78.5882 28.6267 78.5616 28.36C78.5349 28.0933 78.5216 27.8133 78.5216 27.52V24.04V9.43999V3.59999C78.5216 3.22666 78.5082 2.78666 78.4816 2.27999C78.4816 1.77332 78.5482 1.41332 78.6816 1.19999C78.7882 1.03999 78.9616 0.906656 79.2016 0.799989C79.2816 0.799989 79.3482 0.799989 79.4016 0.799989C79.4816 0.773323 79.5482 0.75999 79.6016 0.75999ZM112.918 27.32C112.945 27.4267 112.985 27.56 113.038 27.72C113.118 27.88 113.172 28.0533 113.198 28.24C113.252 28.4 113.265 28.56 113.238 28.72C113.212 28.88 113.118 29 112.958 29.08C112.745 29.2133 112.385 29.2667 111.878 29.24C111.398 29.2133 110.998 29.2 110.678 29.2H108.798C108.585 29.2 108.385 29.2133 108.198 29.24C108.038 29.24 107.878 29.2133 107.718 29.16C107.425 29.08 107.212 28.92 107.078 28.68C106.945 28.4667 106.838 28.24 106.758 28C106.705 27.76 106.625 27.52 106.518 27.28C106.385 26.8533 106.238 26.4267 106.078 26C105.945 25.5733 105.798 25.16 105.638 24.76C105.558 24.52 105.478 24.3067 105.398 24.12C105.345 23.9067 105.278 23.72 105.198 23.56C105.118 23.4 104.998 23.2667 104.838 23.16C104.678 23.0267 104.465 22.9333 104.198 22.88C104.065 22.88 103.932 22.88 103.798 22.88C103.692 22.8533 103.572 22.84 103.438 22.84H97.1184C96.6651 22.84 96.1718 22.84 95.6384 22.84C95.1318 22.8133 94.7318 22.9067 94.4384 23.12C94.2251 23.28 94.0784 23.4933 93.9984 23.76C93.9184 24.0267 93.8251 24.2933 93.7184 24.56C93.5051 25.0133 93.3184 25.4933 93.1584 26C93.0251 26.48 92.8651 26.96 92.6784 27.44C92.5718 27.7067 92.4651 27.9867 92.3584 28.28C92.2784 28.5733 92.1318 28.8 91.9184 28.96C91.7851 29.0667 91.5851 29.1467 91.3184 29.2C91.0784 29.2267 90.7984 29.24 90.4784 29.24C90.1851 29.24 89.8784 29.24 89.5584 29.24C89.2384 29.2133 88.9584 29.2 88.7184 29.2C88.3718 29.2 87.9451 29.2133 87.4384 29.24C86.9584 29.24 86.6118 29.1733 86.3984 29.04C86.2651 28.96 86.1851 28.84 86.1584 28.68C86.1584 28.52 86.1718 28.36 86.1984 28.2C86.2518 28.0133 86.3051 27.84 86.3584 27.68C86.4118 27.52 86.4651 27.3867 86.5184 27.28C86.7851 26.6667 87.0251 26.04 87.2384 25.4C87.4784 24.76 87.7184 24.1333 87.9584 23.52C88.0651 23.3067 88.1451 23.0933 88.1984 22.88C88.2518 22.6667 88.3318 22.4533 88.4384 22.24C88.6518 21.68 88.8651 21.1067 89.0784 20.52C89.2918 19.9333 89.5051 19.36 89.7184 18.8C89.9318 18.2667 90.1318 17.7467 90.3184 17.24C90.5051 16.7067 90.7051 16.1733 90.9184 15.64C91.5318 14.1733 92.0918 12.6933 92.5984 11.2C93.1318 9.70666 93.7051 8.22666 94.3184 6.75999C94.3718 6.62666 94.4118 6.50666 94.4384 6.39999C94.4651 6.29332 94.5051 6.17332 94.5584 6.03999C94.7718 5.47999 94.9851 4.90666 95.1984 4.31999C95.4118 3.73332 95.6384 3.15999 95.8784 2.59999C96.0118 2.30666 96.1184 2.01332 96.1984 1.71999C96.3051 1.39999 96.4784 1.14666 96.7184 0.95999C96.8518 0.879989 97.0251 0.813322 97.2384 0.75999C97.2918 0.733322 97.3451 0.733322 97.3984 0.75999C97.4518 0.75999 97.5051 0.746656 97.5584 0.719988H101.078C101.372 0.719988 101.665 0.719988 101.958 0.719988C102.278 0.693322 102.532 0.746655 102.718 0.879988C103.012 1.03999 103.198 1.27999 103.278 1.59999C103.385 1.89332 103.505 2.19999 103.638 2.51999C103.825 2.97332 103.998 3.42666 104.158 3.87999C104.318 4.30666 104.492 4.74666 104.678 5.19999C104.732 5.35999 104.785 5.51999 104.838 5.67999C104.892 5.83999 104.945 5.99999 104.998 6.15999C105.212 6.69332 105.412 7.22666 105.598 7.75999C105.785 8.26666 105.985 8.78666 106.198 9.31999C106.732 10.6533 107.225 12 107.678 13.36C108.158 14.72 108.678 16.0667 109.238 17.4C109.292 17.5067 109.318 17.6133 109.318 17.72C109.345 17.8 109.385 17.8933 109.438 18C109.598 18.4267 109.758 18.8533 109.918 19.28C110.078 19.7067 110.238 20.1333 110.398 20.56C110.505 20.7733 110.585 20.9867 110.638 21.2C110.692 21.3867 110.758 21.5867 110.838 21.8C111.185 22.6533 111.505 23.5067 111.798 24.36C112.092 25.2133 112.412 26.0533 112.758 26.88C112.812 26.96 112.838 27.04 112.838 27.12C112.838 27.1733 112.865 27.24 112.918 27.32ZM102.558 18.16C102.905 18.0267 103.065 17.8 103.038 17.48C103.012 17.16 102.932 16.8533 102.798 16.56C102.745 16.4533 102.718 16.36 102.718 16.28C102.718 16.1733 102.692 16.0667 102.638 15.96C102.292 15.0533 101.972 14.1333 101.678 13.2C101.385 12.2667 101.052 11.3333 100.678 10.4C100.625 10.2667 100.572 10.1067 100.518 9.91999C100.465 9.70666 100.398 9.51999 100.318 9.35999C100.238 9.17332 100.145 9.01332 100.038 8.87999C99.9318 8.74666 99.7984 8.67999 99.6384 8.67999C99.5851 8.73332 99.5318 8.77332 99.4784 8.79999C99.4251 8.82666 99.3718 8.86666 99.3184 8.91999C99.1051 9.18666 98.9451 9.50666 98.8384 9.87999C98.7584 10.2533 98.6518 10.6133 98.5184 10.96C98.1984 11.7067 97.9051 12.4667 97.6384 13.24C97.3984 14.0133 97.1318 14.7867 96.8384 15.56C96.7318 15.8267 96.6384 16.0933 96.5584 16.36C96.4784 16.6 96.3984 16.8667 96.3184 17.16C96.2384 17.3733 96.2518 17.6133 96.3584 17.88C96.4918 18.0667 96.7051 18.1733 96.9984 18.2C97.3184 18.2267 97.6384 18.24 97.9584 18.24H100.998C101.238 18.24 101.505 18.24 101.798 18.24C102.092 18.24 102.345 18.2133 102.558 18.16ZM115.661 0.719988H118.901C119.195 0.719988 119.475 0.719988 119.741 0.719988C120.035 0.693322 120.288 0.733322 120.501 0.839989C120.768 0.946656 120.968 1.10666 121.101 1.31999C121.261 1.53332 121.408 1.74665 121.541 1.95999L122.981 4.23999C123.915 5.75999 124.848 7.27999 125.781 8.79999C126.741 10.2933 127.688 11.8 128.621 13.32C129.075 14.04 129.515 14.7733 129.941 15.52C130.395 16.24 130.861 16.9467 131.341 17.64C131.448 17.8 131.541 17.96 131.621 18.12C131.728 18.28 131.861 18.4267 132.021 18.56C132.075 18.6133 132.141 18.6667 132.221 18.72C132.301 18.7733 132.381 18.7733 132.461 18.72C132.648 18.6667 132.741 18.5467 132.741 18.36C132.741 18.1733 132.768 17.9733 132.821 17.76C132.848 17.5733 132.848 17.3733 132.821 17.16C132.821 16.92 132.821 16.6933 132.821 16.48V13.96V4.67999V3.15999C132.821 3.02666 132.808 2.89332 132.781 2.75999C132.781 2.62665 132.795 2.50666 132.821 2.39999V1.95999C132.821 1.58666 132.901 1.29332 133.061 1.07999C133.195 0.893322 133.368 0.786656 133.581 0.75999C133.821 0.733322 134.088 0.719988 134.381 0.719988H136.821C137.035 0.719988 137.248 0.719988 137.461 0.719988C137.675 0.719988 137.861 0.746655 138.021 0.799989C138.368 0.933322 138.555 1.17332 138.581 1.51999C138.608 1.83999 138.621 2.22666 138.621 2.67999V7.07999V23.84V27.2C138.621 27.4933 138.621 27.7867 138.621 28.08C138.648 28.3733 138.608 28.6 138.501 28.76C138.395 28.92 138.261 29.0267 138.101 29.08C137.968 29.1067 137.795 29.1467 137.581 29.2H136.181H133.981C133.741 29.2 133.501 29.2 133.261 29.2C133.048 29.2 132.861 29.16 132.701 29.08C132.408 28.9467 132.181 28.7733 132.021 28.56C131.861 28.32 131.701 28.0667 131.541 27.8C131.301 27.4267 131.061 27.0533 130.821 26.68C130.608 26.28 130.381 25.8933 130.141 25.52L124.141 15.92C123.768 15.3067 123.395 14.72 123.021 14.16C122.675 13.5733 122.315 12.9733 121.941 12.36C121.808 12.1733 121.648 11.9467 121.461 11.68C121.301 11.3867 121.075 11.24 120.781 11.24C120.568 11.4267 120.448 11.64 120.421 11.88C120.421 12.12 120.421 12.4267 120.421 12.8V15.6V25.16V26.72C120.421 26.8533 120.421 26.9867 120.421 27.12C120.448 27.2533 120.435 27.3867 120.381 27.52V27.96C120.381 28.3867 120.315 28.6933 120.181 28.88C120.048 29.04 119.861 29.1333 119.621 29.16C119.408 29.1867 119.155 29.2 118.861 29.2H116.421C116.208 29.2 115.995 29.2 115.781 29.2C115.568 29.2 115.381 29.1733 115.221 29.12C114.875 28.9867 114.675 28.7467 114.621 28.4C114.595 28.0533 114.581 27.6533 114.581 27.2V22.6V6.55999V2.83999C114.581 2.54666 114.581 2.23999 114.581 1.91999C114.581 1.59999 114.635 1.34666 114.741 1.15999C114.848 0.973322 115.035 0.839989 115.301 0.75999C115.355 0.75999 115.408 0.75999 115.461 0.75999C115.541 0.733322 115.608 0.719988 115.661 0.719988ZM166.75 27.32C166.776 27.4267 166.816 27.56 166.87 27.72C166.95 27.88 167.003 28.0533 167.03 28.24C167.083 28.4 167.096 28.56 167.07 28.72C167.043 28.88 166.95 29 166.79 29.08C166.576 29.2133 166.216 29.2667 165.71 29.24C165.23 29.2133 164.83 29.2 164.51 29.2H162.63C162.416 29.2 162.216 29.2133 162.03 29.24C161.87 29.24 161.71 29.2133 161.55 29.16C161.256 29.08 161.043 28.92 160.91 28.68C160.776 28.4667 160.67 28.24 160.59 28C160.536 27.76 160.456 27.52 160.35 27.28C160.216 26.8533 160.07 26.4267 159.91 26C159.776 25.5733 159.63 25.16 159.47 24.76C159.39 24.52 159.31 24.3067 159.23 24.12C159.176 23.9067 159.11 23.72 159.03 23.56C158.95 23.4 158.83 23.2667 158.67 23.16C158.51 23.0267 158.296 22.9333 158.03 22.88C157.896 22.88 157.763 22.88 157.63 22.88C157.523 22.8533 157.403 22.84 157.27 22.84H150.95C150.496 22.84 150.003 22.84 149.47 22.84C148.963 22.8133 148.563 22.9067 148.27 23.12C148.056 23.28 147.91 23.4933 147.83 23.76C147.75 24.0267 147.656 24.2933 147.55 24.56C147.336 25.0133 147.15 25.4933 146.99 26C146.856 26.48 146.696 26.96 146.51 27.44C146.403 27.7067 146.296 27.9867 146.19 28.28C146.11 28.5733 145.963 28.8 145.75 28.96C145.616 29.0667 145.416 29.1467 145.15 29.2C144.91 29.2267 144.63 29.24 144.31 29.24C144.016 29.24 143.71 29.24 143.39 29.24C143.07 29.2133 142.79 29.2 142.55 29.2C142.203 29.2 141.776 29.2133 141.27 29.24C140.79 29.24 140.443 29.1733 140.23 29.04C140.096 28.96 140.016 28.84 139.99 28.68C139.99 28.52 140.003 28.36 140.03 28.2C140.083 28.0133 140.136 27.84 140.19 27.68C140.243 27.52 140.296 27.3867 140.35 27.28C140.616 26.6667 140.856 26.04 141.07 25.4C141.31 24.76 141.55 24.1333 141.79 23.52C141.896 23.3067 141.976 23.0933 142.03 22.88C142.083 22.6667 142.163 22.4533 142.27 22.24C142.483 21.68 142.696 21.1067 142.91 20.52C143.123 19.9333 143.336 19.36 143.55 18.8C143.763 18.2667 143.963 17.7467 144.15 17.24C144.336 16.7067 144.536 16.1733 144.75 15.64C145.363 14.1733 145.923 12.6933 146.43 11.2C146.963 9.70666 147.536 8.22666 148.15 6.75999C148.203 6.62666 148.243 6.50666 148.27 6.39999C148.296 6.29332 148.336 6.17332 148.39 6.03999C148.603 5.47999 148.816 4.90666 149.03 4.31999C149.243 3.73332 149.47 3.15999 149.71 2.59999C149.843 2.30666 149.95 2.01332 150.03 1.71999C150.136 1.39999 150.31 1.14666 150.55 0.95999C150.683 0.879989 150.856 0.813322 151.07 0.75999C151.123 0.733322 151.176 0.733322 151.23 0.75999C151.283 0.75999 151.336 0.746656 151.39 0.719988H154.91C155.203 0.719988 155.496 0.719988 155.79 0.719988C156.11 0.693322 156.363 0.746655 156.55 0.879988C156.843 1.03999 157.03 1.27999 157.11 1.59999C157.216 1.89332 157.336 2.19999 157.47 2.51999C157.656 2.97332 157.83 3.42666 157.99 3.87999C158.15 4.30666 158.323 4.74666 158.51 5.19999C158.563 5.35999 158.616 5.51999 158.67 5.67999C158.723 5.83999 158.776 5.99999 158.83 6.15999C159.043 6.69332 159.243 7.22666 159.43 7.75999C159.616 8.26666 159.816 8.78666 160.03 9.31999C160.563 10.6533 161.056 12 161.51 13.36C161.99 14.72 162.51 16.0667 163.07 17.4C163.123 17.5067 163.15 17.6133 163.15 17.72C163.176 17.8 163.216 17.8933 163.27 18C163.43 18.4267 163.59 18.8533 163.75 19.28C163.91 19.7067 164.07 20.1333 164.23 20.56C164.336 20.7733 164.416 20.9867 164.47 21.2C164.523 21.3867 164.59 21.5867 164.67 21.8C165.016 22.6533 165.336 23.5067 165.63 24.36C165.923 25.2133 166.243 26.0533 166.59 26.88C166.643 26.96 166.67 27.04 166.67 27.12C166.67 27.1733 166.696 27.24 166.75 27.32ZM156.39 18.16C156.736 18.0267 156.896 17.8 156.87 17.48C156.843 17.16 156.763 16.8533 156.63 16.56C156.576 16.4533 156.55 16.36 156.55 16.28C156.55 16.1733 156.523 16.0667 156.47 15.96C156.123 15.0533 155.803 14.1333 155.51 13.2C155.216 12.2667 154.883 11.3333 154.51 10.4C154.456 10.2667 154.403 10.1067 154.35 9.91999C154.296 9.70666 154.23 9.51999 154.15 9.35999C154.07 9.17332 153.976 9.01332 153.87 8.87999C153.763 8.74666 153.63 8.67999 153.47 8.67999C153.416 8.73332 153.363 8.77332 153.31 8.79999C153.256 8.82666 153.203 8.86666 153.15 8.91999C152.936 9.18666 152.776 9.50666 152.67 9.87999C152.59 10.2533 152.483 10.6133 152.35 10.96C152.03 11.7067 151.736 12.4667 151.47 13.24C151.23 14.0133 150.963 14.7867 150.67 15.56C150.563 15.8267 150.47 16.0933 150.39 16.36C150.31 16.6 150.23 16.8667 150.15 17.16C150.07 17.3733 150.083 17.6133 150.19 17.88C150.323 18.0667 150.536 18.1733 150.83 18.2C151.15 18.2267 151.47 18.24 151.79 18.24H154.83C155.07 18.24 155.336 18.24 155.63 18.24C155.923 18.24 156.176 18.2133 156.39 18.16Z" fill="url(#paint0_linear_5487_14)"/>
<defs>
<linearGradient id="paint0_linear_5487_14" x1="83.5" y1="-10.76" x2="83.5" y2="38.24" gradientUnits="userSpaceOnUse">
<stop stop-color="#FA198B"/>
<stop offset="1" stop-color="#31081F"/>
</linearGradient>
</defs>
</svg>
